<svg data-v-423bf9ae="" xmlns="http://www.w3.org/2000/svg" viewBox="0 0 396 90" class="iconLeft"><!----><!----><!----><g data-v-423bf9ae="" id="85a238a2-0d74-407a-923a-1da4a48105c1" fill="#012B3D" transform="matrix(3.8961039926133587,0,0,3.8961039926133587,111.51948209796808,11.727271443274674)"><path d="M6.71 1.05L4.27 1.05L-0.39 12.60L2.44 12.60L3.29 10.29L7.69 10.29L8.54 12.60L11.37 12.60ZM6.79 7.98L4.19 7.98L5.47 4.62L5.50 4.62ZM14.45 1.05L11.82 1.05L11.82 12.60L14.45 12.60ZM20.10 0.84C18.24 0.84 16.34 2.21 16.34 4.37C16.34 5.57 17.15 6.65 18.54 7.34C19.91 8.02 21.14 8.40 21.14 9.24C21.14 10.32 20.05 10.37 19.47 10.37C18.19 10.37 16.65 9.07 16.65 9.07L15.33 11.28C15.33 11.28 16.97 12.81 19.67 12.81C21.92 12.81 24.02 11.84 24.02 9.09C24.02 7.57 22.61 6.48 21.32 5.94C20.01 5.38 18.91 4.91 18.91 4.27C18.91 3.64 19.39 3.23 20.29 3.23C21.48 3.23 22.62 4.03 22.62 4.03L23.69 1.93C23.69 1.93 22.20 0.84 20.10 0.84ZM29.08 7.24C29.82 7.24 30.28 7.57 30.28 7.57L31.12 5.88C31.12 5.88 30.31 5.21 28.71 5.21C26.63 5.21 24.74 6.92 24.74 9.03C24.74 11.13 26.64 12.81 28.71 12.81C30.31 12.81 31.12 12.17 31.12 12.17L30.28 10.44C30.28 10.44 29.82 10.78 29.08 10.78C28.14 10.78 27.37 10.00 27.37 9.00C27.37 8.02 28.14 7.24 29.08 7.24ZM32.10 12.60L34.58 12.60L34.58 8.82C34.58 8.64 34.76 7.36 36.05 7.36C36.88 7.36 37.34 7.76 37.34 7.76L38.37 5.66C38.37 5.66 37.73 5.21 36.81 5.21C35.39 5.21 34.61 6.45 34.61 6.45L34.58 6.45L34.58 5.42L32.10 5.42ZM40.35 0.98C39.54 0.98 38.88 1.64 38.88 2.45C38.88 3.26 39.54 3.92 40.35 3.92C41.16 3.92 41.82 3.26 41.82 2.45C41.82 1.64 41.16 0.98 40.35 0.98ZM39.07 5.42L41.55 5.42L41.55 12.60L39.07 12.60ZM51.70 9.00C51.70 6.90 50.23 5.21 48.13 5.21C47.15 5.21 46.31 5.64 45.78 6.23L45.75 6.23L45.75 5.42L43.30 5.42L43.30 16.24L45.78 16.24L45.78 11.91C46.37 12.49 47.17 12.81 48.13 12.81C50.23 12.81 51.70 11.10 51.70 9.00ZM49.07 9.00C49.07 10.00 48.33 10.70 47.39 10.70C46.47 10.70 45.72 10.00 45.72 9.00C45.72 8.02 46.42 7.32 47.39 7.32C48.40 7.32 49.07 8.02 49.07 9.00ZM53.20 5.42L52.16 5.42L52.16 7.31L53.20 7.31L53.20 10.07C53.20 11.34 53.68 12.81 55.65 12.81C56.67 12.81 57.47 12.36 57.47 12.36L56.85 10.36C56.85 10.36 56.56 10.58 56.24 10.58C55.85 10.58 55.68 10.26 55.68 9.59L55.68 7.31L57.19 7.31L57.19 5.42L55.68 5.42L55.68 2.74L53.20 2.74ZM65.58 9.35C65.59 9.27 65.59 9.11 65.59 9.02C65.59 6.50 63.92 5.21 61.74 5.21C59.57 5.21 57.79 6.92 57.79 9.02C57.79 11.10 59.57 12.81 61.74 12.81C63.34 12.81 64.65 12.29 65.46 10.93L63.67 10.04C63.07 10.68 62.72 10.84 61.92 10.84C61.29 10.84 60.37 10.46 60.37 9.35ZM60.44 7.98C60.48 7.32 60.96 6.82 61.81 6.82C62.54 6.82 63.06 7.22 63.17 7.98ZM66.72 12.60L69.20 12.60L69.20 8.82C69.20 8.64 69.38 7.36 70.67 7.36C71.50 7.36 71.96 7.76 71.96 7.76L73.00 5.66C73.00 5.66 72.35 5.21 71.43 5.21C70.01 5.21 69.23 6.45 69.23 6.45L69.20 6.45L69.20 5.42L66.72 5.42Z"></path></g><defs data-v-423bf9ae=""><linearGradient data-v-423bf9ae="" gradientTransform="rotate(25)" id="fd6e8180-4027-4df6-b067-0f01a392a48a" x1="0%" y1="0%" x2="100%" y2="0%"><stop data-v-423bf9ae="" offset="0%" style="stop-color: rgb(0, 118, 221); stop-opacity: 1;"></stop><stop data-v-423bf9ae="" offset="100%" style="stop-color: rgb(0, 205, 233); stop-opacity: 1;"></stop></linearGradient></defs><g data-v-423bf9ae="" id="6de5d1d4-dec8-4815-bfaf-de2deeb92007" transform="matrix(2.8125,0,0,2.8125,0,0)" stroke="none" fill="url(#fd6e8180-4027-4df6-b067-0f01a392a48a)"><path d="M16 32c8.837 0 16-7.163 16-16S24.837 0 16 0 0 7.163 0 16s7.163 16 16 16zM14.817 6.421h2v8.886h8.887v2H14.817V6.421zm-5.959.437h2v14.283h14.283v2H8.858V6.858z"></path></g><!----></svg>