<svg xmlns="http://www.w3.org/2000/svg" width="512" height="512" viewBox="0 0 512 512" id="online-courses"><text font-family="OpenSans-Bold,Open Sans" font-size="48" font-weight="700" transform="translate(93.438 -34.521)">TOP COURSES</text><text fill="#231f20" font-family="OpenSans-Bold,Open Sans" font-size="48" font-weight="700" transform="translate(93.438 -34.521)">TOP COURSES</text><text fill="#231f20" font-family="OpenSans-Bold,Open Sans" font-size="48" font-weight="700" transform="translate(93.438 -34.521)">TOP COURSES</text><rect width="464" height="304" x="24" y="96" fill="#b3e9ff" rx="10" ry="10"></rect><rect width="272" height="224" x="120" y="56" fill="#faa231"></rect><path fill="#127bb3" d="M352,488H160v-9.585a20,20,0,0,1,13.675-18.973l6.974-2.325A40,40,0,0,0,208,419.17V392h96v27.17a40,40,0,0,0,27.351,37.947l6.974,2.325A20,20,0,0,1,352,478.415Z"></path><path fill="#25b1fa" d="M480.469,399.79h-444C28.477,400,24,395.523,24,390V336H488v54C488,395.523,483.523,400,480.469,399.79Z"></path><rect width="48" height="16" x="232" y="360" fill="#b3e9ff"></rect><rect width="208" height="280" x="152" y="24" fill="#feecd6"></rect><polygon fill="#fa5d3f" points="304 112 208 112 208 80 232 88 256 56 280 88 304 80 304 112"></polygon><rect width="144" height="96" x="184" y="144" fill="#fcc783"></rect><polygon fill="#fa5d3f" points="232 216 232 168 280 192 232 216"></polygon><rect width="96" height="16" x="208" y="264" fill="#fcc783"></rect><path fill="#25b1fa" d="M429.657 253.657l-11.314-11.314L436.687 224l-18.344-18.343 11.314-11.314 24 24a8 8 0 0 1 0 11.314zM82.343 253.657l-24-24a8 8 0 0 1 0-11.314l24-24 11.314 11.314L75.313 224l18.344 18.343z"></path></svg>