<svg xmlns="http://www.w3.org/2000/svg" xmlns:xlink="http://www.w3.org/1999/xlink" width="42" height="42" id="premium"><defs><linearGradient id="b" x1="949.87" x2="974.39" y1="518.014" y2="544.657" gradientTransform="translate(-1272.559 316.47) scale(1.34562)" gradientUnits="userSpaceOnUse" xlink:href="#a"></linearGradient><linearGradient id="a"><stop offset="0" stop-color="#24f7bc"></stop><stop offset="1" stop-color="#24c4fc"></stop></linearGradient></defs><g transform="translate(0 -1010.362)"><rect width="42" height="42" y="1010.362" fill="url(#b)" rx="8.876" ry="8.876"></rect><path style="line-height:normal;text-indent:0;text-align:start;text-decoration-line:none;text-decoration-style:solid;text-decoration-color:#000;text-transform:none;block-progression:tb;isolation:auto;mix-blend-mode:normal" fill="#fff" d="M19.582 1017.371a.682.682 0 0 0-.232 0c-.207.037-.266.11-.336.168-.07.058-.132.118-.194.184-.124.13-.251.284-.377.435-.125.151-.249.3-.343.404-.025.028-.04.04-.059.06-.027 0-.045 0-.08-.01a15.031 15.031 0 0 1-.518-.086 9.231 9.231 0 0 0-.566-.088 2.134 2.134 0 0 0-.266-.018c-.09 0-.183-.014-.363.092s-.21.194-.256.272a2.06 2.06 0 0 0-.119.238 9.38 9.38 0 0 0-.209.541c-.067.186-.132.366-.185.498-.015.036-.024.054-.036.08a.52.52 0 0 1-.08.023c-.136.03-.326.063-.517.098a9.464 9.464 0 0 0-.56.116c-.088.022-.17.045-.255.078-.085.033-.178.05-.31.21-.13.159-.131.252-.149.34a2.057 2.057 0 0 0-.031.264c-.012.181-.011.382-.012.58 0 .198-.002.393-.008.535-.001.04-.003.062-.005.092l-.073.05c-.118.075-.282.171-.45.27-.17.1-.342.202-.491.303a2.06 2.06 0 0 0-.211.163c-.068.06-.15.106-.219.3-.07.194-.037.28-.023.37.014.09.033.172.058.26.05.174.118.364.184.55.066.186.131.366.174.502l.025.09c-.017.024-.028.042-.053.074-.085.113-.209.26-.334.412a9.331 9.331 0 0 0-.357.455c-.053.073-.1.143-.143.223-.043.086-.103.159-.103.364s.06.276.103.356c.044.08.09.15.143.224.106.147.233.302.357.453.125.152.249.3.334.412.025.032.036.048.053.072-.008.03-.013.053-.025.092-.043.136-.108.319-.174.504-.066.186-.134.375-.184.55-.025.086-.044.17-.058.259-.014.09-.046.175.023.37.07.193.15.24.219.3.068.06.136.111.21.162.15.102.323.201.491.3.169.1.333.196.451.272.033.021.049.036.073.053.002.03.004.05.005.09.006.143.008.338.008.535 0 .198 0 .4.012.58.006.091.014.175.031.264.018.09.017.182.149.342.132.16.225.176.31.209.085.033.167.056.254.078.175.044.369.081.56.115.192.035.382.067.518.098l.08.02.036.082c.053.132.118.315.185.5.067.186.137.373.209.54.036.082.073.16.12.237.046.078.075.166.255.272.18.106.272.09.363.092.091 0 .176-.01.266-.016.039 0 .083-.014.123-.02v9.564a.537.537 0 0 0 .818.46l3.203-1.975 3.157 1.972a.537.537 0 0 0 .822-.457v-9.564c.04.01.084.015.123.02.09.01.175.018.266.016.09 0 .183.014.363-.092s.211-.194.258-.272a2.06 2.06 0 0 0 .119-.238c.072-.167.14-.354.207-.54.067-.185.132-.367.185-.5.015-.035.026-.052.038-.08a.528.528 0 0 1 .08-.021c.136-.03.324-.063.515-.098.192-.035.388-.072.563-.115.087-.022.169-.045.254-.078.085-.033.176-.05.308-.21.132-.16.131-.252.149-.341.017-.09.025-.173.031-.264a9.42 9.42 0 0 0 .014-.58c0-.198 0-.392.006-.535.001-.04.003-.06.005-.09.024-.016.04-.032.073-.053.118-.076.284-.172.453-.272.168-.099.339-.199.488-.3a2.06 2.06 0 0 0 .211-.162c.068-.06.15-.108.219-.301.07-.194.037-.28.023-.37a2.068 2.068 0 0 0-.06-.26 9.31 9.31 0 0 0-.182-.548c-.066-.186-.131-.368-.174-.504-.012-.039-.017-.063-.025-.092a2.16 2.16 0 0 1 .053-.072c.085-.113.209-.26.334-.412.124-.152.251-.306.357-.453.053-.074.101-.145.145-.225.043-.08.101-.15.101-.355 0-.206-.058-.278-.102-.358a2.072 2.072 0 0 0-.144-.224 9.29 9.29 0 0 0-.358-.453c-.124-.152-.248-.3-.333-.413-.025-.032-.036-.05-.053-.074l.025-.09c.043-.135.108-.316.174-.501a9.36 9.36 0 0 0 .182-.551 2.07 2.07 0 0 0 .06-.26c.014-.09.046-.176-.023-.37-.07-.193-.151-.24-.219-.3a2.104 2.104 0 0 0-.21-.162 9.069 9.069 0 0 0-.49-.303c-.168-.099-.334-.195-.452-.271-.033-.021-.05-.034-.073-.051l-.006-.092c-.005-.143-.005-.338-.005-.535a9.46 9.46 0 0 0-.014-.58 2.054 2.054 0 0 0-.031-.264c-.018-.09-.018-.182-.149-.34-.132-.16-.224-.178-.308-.211a2.088 2.088 0 0 0-.254-.078 8.46 8.46 0 0 0-.563-.115c-.192-.035-.379-.067-.515-.098l-.08-.022c-.012-.026-.023-.044-.038-.08-.053-.132-.118-.313-.185-.498-.067-.186-.135-.375-.207-.541a2.074 2.074 0 0 0-.12-.238c-.046-.078-.077-.166-.257-.272-.18-.105-.272-.09-.363-.092-.091 0-.177.01-.266.016-.179.019-.375.054-.566.088-.192.034-.38.067-.518.086-.036 0-.053.01-.08.01-.02-.02-.034-.033-.059-.06-.094-.105-.216-.253-.341-.404a9.229 9.229 0 0 0-.38-.436 2 2 0 0 0-.193-.183c-.07-.058-.127-.131-.334-.168-.207-.037-.287.01-.373.04-.086.03-.163.066-.244.106-.162.08-.335.181-.504.28-.169.097-.335.195-.459.261-.032.017-.047.023-.072.035-.025-.012-.042-.018-.074-.035-.124-.066-.288-.163-.457-.262-.17-.098-.34-.198-.502-.279a2.01 2.01 0 0 0-.244-.105c-.043-.015-.084-.034-.141-.045zm-.045 1.05c.116.06.268.146.428.239.166.096.337.199.492.281.078.041.151.077.229.11.077.032.138.07.314.07s.237-.038.314-.07a2.58 2.58 0 0 0 .229-.11c.156-.083.326-.185.492-.281.16-.093.314-.178.43-.236.09.096.205.23.324.373.123.148.25.302.367.433.06.066.116.127.178.184.062.057.105.115.27.176.164.06.234.044.318.04.083 0 .165-.013.252-.024.174-.024.368-.06.556-.092.182-.032.356-.061.485-.076.052.121.117.292.181.47.066.183.131.37.198.533.033.082.067.158.105.233.039.074.059.145.192.258.133.113.207.122.287.148.08.026.158.045.244.064.172.038.366.071.555.106.183.033.358.069.484.1.008.132.011.317.012.507 0 .195-.002.393.006.57.003.09.01.174.021.257.011.083.006.154.092.304.085.15.15.185.217.237.065.052.133.099.207.146.148.095.319.194.484.291.163.096.32.19.428.264a9.16 9.16 0 0 1-.162.484c-.065.183-.133.37-.186.54a2.735 2.735 0 0 0-.066.245c-.018.082-.045.15-.016.319.03.17.079.224.123.295.044.07.091.138.145.209.107.14.234.292.357.441.121.148.237.293.315.4-.078.108-.194.251-.315.399-.123.149-.25.3-.357.441-.054.07-.1.138-.145.21-.044.07-.093.124-.123.294-.03.17-.002.237.016.319.017.082.04.161.066.246.053.169.12.356.186.539.064.18.125.357.162.484a9.344 9.344 0 0 1-.428.264c-.165.098-.336.197-.484.293a2.758 2.758 0 0 0-.207.144c-.066.052-.132.086-.217.237-.086.15-.08.223-.092.306a2.685 2.685 0 0 0-.021.254c-.008.178-.006.378-.006.572 0 .192-.004.376-.012.508a9.64 9.64 0 0 1-.484.098c-.189.034-.383.067-.555.106a2.883 2.883 0 0 0-.244.064c-.08.026-.154.035-.287.148-.133.113-.153.184-.192.258a2.64 2.64 0 0 0-.105.232c-.067.165-.132.353-.198.536-.064.177-.129.347-.181.468a9.313 9.313 0 0 1-.485-.076c-.188-.033-.382-.068-.556-.092a2.467 2.467 0 0 0-.252-.023c-.084 0-.154-.02-.318.04-.165.06-.208.118-.27.175a2.722 2.722 0 0 0-.178.182c-.118.131-.244.285-.367.433-.12.144-.236.28-.326.375a9.479 9.479 0 0 1-.428-.238c-.166-.097-.336-.198-.492-.281a2.827 2.827 0 0 0-.229-.11c-.077-.032-.138-.072-.314-.072s-.237.04-.314.072c-.078.032-.151.07-.229.112-.155.083-.326.183-.492.28-.16.092-.312.179-.428.237a9.2 9.2 0 0 1-.326-.375c-.123-.148-.25-.302-.367-.433a2.56 2.56 0 0 0-.176-.182c-.062-.057-.105-.117-.27-.178-.164-.06-.236-.044-.32-.04-.084 0-.165.011-.252.022-.174.024-.368.06-.556.092a9.411 9.411 0 0 1-.485.076 9.201 9.201 0 0 1-.18-.468c-.065-.183-.132-.371-.199-.535a2.726 2.726 0 0 0-.105-.233c-.039-.074-.059-.145-.192-.258-.133-.113-.205-.122-.285-.148a2.59 2.59 0 0 0-.246-.064c-.172-.038-.364-.071-.553-.106a8.624 8.624 0 0 1-.486-.098 9.35 9.35 0 0 1-.01-.507c0-.195 0-.395-.008-.573a2.68 2.68 0 0 0-.02-.254c-.01-.083-.007-.155-.093-.306-.085-.15-.15-.185-.217-.236a2.54 2.54 0 0 0-.207-.145c-.148-.095-.318-.195-.484-.293a9.058 9.058 0 0 1-.428-.264c.037-.127.096-.303.16-.484.065-.182.135-.37.188-.54.026-.084.049-.163.066-.245.018-.082.045-.149.016-.319-.03-.17-.079-.223-.123-.295a2.696 2.696 0 0 0-.147-.207c-.107-.14-.233-.294-.355-.443a9.011 9.011 0 0 1-.315-.398c.078-.108.194-.253.315-.4.122-.15.248-.301.355-.442.054-.07.103-.138.147-.21.044-.07.093-.125.123-.294.03-.17.002-.236-.016-.318a2.691 2.691 0 0 0-.066-.247c-.053-.169-.123-.356-.188-.539a8.93 8.93 0 0 1-.16-.484c.109-.073.265-.168.428-.264.166-.098.336-.195.484-.29a2.8 2.8 0 0 0 .207-.147c.066-.052.132-.086.217-.236.086-.151.083-.222.094-.305.011-.083.016-.167.02-.256.007-.177.007-.376.007-.57 0-.19.002-.376.01-.508.126-.031.303-.066.486-.1.189-.034.381-.067.553-.106a2.93 2.93 0 0 0 .246-.064c.08-.026.152-.035.285-.148.133-.113.153-.184.192-.258.038-.074.072-.15.105-.232.067-.165.134-.351.2-.534.064-.177.127-.349.18-.47.128.015.301.044.484.076.188.033.382.068.556.092.087.012.169.022.252.025.084 0 .156.02.32-.041.165-.061.208-.12.27-.176a2.74 2.74 0 0 0 .176-.184c.118-.131.244-.285.367-.433.12-.144.236-.28.326-.375zm1.442 1.942a6.486 6.486 0 0 0-6.479 6.479 6.484 6.484 0 0 0 6.479 6.476 6.484 6.484 0 0 0 6.478-6.476 6.486 6.486 0 0 0-6.478-6.479zm0 .943a5.529 5.529 0 0 1 5.535 5.536 5.527 5.527 0 0 1-5.535 5.533 5.526 5.526 0 0 1-5.534-5.533 5.527 5.527 0 0 1 5.534-5.536zm.002 1.68c-.29 0-.406.149-.493.242a1.729 1.729 0 0 0-.21.293 7.856 7.856 0 0 0-.36.7c-.116.246-.229.493-.32.677-.042.084-.076.15-.104.198a2.912 2.912 0 0 1-.22.043c-.204.033-.473.064-.743.101-.27.037-.54.077-.777.135a1.743 1.743 0 0 0-.342.113c-.115.055-.29.123-.379.399-.088.275.016.433.078.545.063.11.134.199.213.29.16.184.358.371.557.557.199.186.4.368.547.512.067.066.118.121.154.162a3.055 3.055 0 0 1-.027.22c-.032.204-.085.47-.133.737a7.86 7.86 0 0 0-.111.78c-.01.12-.013.232.004.359.016.126.028.314.263.482.236.169.416.12.541.094a1.7 1.7 0 0 0 .342-.111c.224-.095.464-.224.703-.356.239-.131.475-.266.658-.361.084-.044.151-.076.201-.098.05.021.118.053.202.096.184.093.421.223.662.352.24.128.482.255.707.347.112.046.218.084.344.108.125.024.307.072.54-.1.234-.172.244-.36.258-.487a1.705 1.705 0 0 0-.002-.36 7.843 7.843 0 0 0-.12-.776c-.052-.268-.107-.532-.141-.735a3.209 3.209 0 0 1-.032-.222c.036-.041.086-.096.153-.163.145-.146.344-.329.54-.517.198-.188.392-.38.55-.565.078-.093.15-.182.21-.294.062-.112.162-.27.07-.545-.09-.275-.266-.34-.382-.393a1.732 1.732 0 0 0-.344-.11 7.916 7.916 0 0 0-.777-.126c-.27-.034-.54-.062-.744-.092a3.314 3.314 0 0 1-.22-.04 3.247 3.247 0 0 1-.108-.195c-.094-.183-.21-.429-.328-.674a7.86 7.86 0 0 0-.368-.695 1.724 1.724 0 0 0-.214-.29c-.088-.094-.207-.237-.497-.235a.5.5 0 0 0-.002 0zm.01 1.334c.057.11.108.196.17.323.114.235.229.482.337.693.054.105.105.202.16.29.056.09.09.168.244.278.155.11.238.117.34.14.102.025.211.043.328.06.235.035.506.065.766.098.14.017.24.038.361.057-.086.088-.152.165-.254.261-.189.182-.39.368-.558.536a3.79 3.79 0 0 0-.225.242c-.067.08-.132.135-.19.316-.057.181-.037.263-.029.367.009.105.026.214.045.33.04.234.095.5.145.756.026.138.037.24.057.362-.111-.055-.205-.096-.329-.162-.23-.124-.47-.257-.681-.364a3.886 3.886 0 0 0-.301-.138c-.097-.04-.17-.085-.36-.084-.19 0-.262.047-.359.088-.096.04-.195.09-.3.144-.21.11-.446.245-.676.371-.124.068-.218.11-.328.166.017-.122.03-.223.054-.361.047-.258.098-.526.135-.76a3.81 3.81 0 0 0 .041-.328c.007-.104.027-.187-.033-.367s-.125-.235-.193-.315a3.992 3.992 0 0 0-.231-.24c-.17-.166-.37-.35-.562-.53-.103-.095-.17-.17-.258-.257.122-.02.22-.042.36-.06.26-.037.53-.07.765-.108.117-.02.224-.038.326-.064.102-.025.187-.032.34-.145.153-.112.183-.19.238-.28a3.8 3.8 0 0 0 .158-.292c.106-.212.219-.46.33-.697.06-.127.11-.215.166-.325zm-2.917 10.81c.008.01.015.015.026.026.094.105.218.253.343.404.126.151.253.304.377.436.063.066.123.126.194.183.07.058.129.131.336.168.206.037.287-.01.373-.04.086-.03.163-.066.244-.106.161-.08.333-.181.502-.28.011-.01.02-.01.031-.018v4.457h1v-4.457c.011.01.02.011.031.018.17.098.343.2.504.28.08.04.158.076.244.105.086.03.166.078.373.041s.264-.11.334-.168c.07-.057.132-.118.194-.183.124-.132.253-.285.379-.436.125-.151.247-.3.341-.404.011-.012.018-.017.026-.025v8.724l-2.617-1.634a.537.537 0 0 0-.567 0l-2.668 1.644v-8.734z" color="#000" font-family="sans-serif" font-weight="400" overflow="visible"></path></g></svg>