<svg xmlns="http://www.w3.org/2000/svg" width="24" height="24" fill="none" viewBox="0 0 24 24" id="subscription"><path fill="#EE4D4D" d="M3 7.25C2.0335 7.25 1.25 8.0335 1.25 9V20C1.25 20.9665 2.0335 21.75 3 21.75H21C21.9665 21.75 22.75 20.9665 22.75 20V9C22.75 8.0335 21.9665 7.25 21 7.25H3Z"></path><path fill="#ECEFF1" d="M10.4301 10.3856C10.201 10.2252 9.90169 10.2056 9.65364 10.3348C9.40559 10.4639 9.25 10.7203 9.25 11V18C9.25 18.2797 9.40559 18.5361 9.65364 18.6652C9.90169 18.7944 10.201 18.7748 10.4301 18.6144L15.4301 15.1144C15.6306 14.9741 15.75 14.7447 15.75 14.5C15.75 14.2553 15.6306 14.0259 15.4301 13.8856L10.4301 10.3856Z"></path><path fill="#EE4D4D" fill-rule="evenodd" d="M3.25 5.5C3.25 5.08579 3.58579 4.75 4 4.75H20C20.4142 4.75 20.75 5.08579 20.75 5.5 20.75 5.91421 20.4142 6.25 20 6.25H4C3.58579 6.25 3.25 5.91421 3.25 5.5zM5.25 3C5.25 2.58579 5.58579 2.25 6 2.25H18C18.4142 2.25 18.75 2.58579 18.75 3 18.75 3.41421 18.4142 3.75 18 3.75H6C5.58579 3.75 5.25 3.41421 5.25 3z" clip-rule="evenodd"></path><path fill="#D64545" fill-rule="evenodd" d="M12 2.25V3.75H6C5.58579 3.75 5.25 3.41421 5.25 3 5.25 2.58579 5.58579 2.25 6 2.25H12zM12 4.75V6.25H4C3.58579 6.25 3.25 5.91421 3.25 5.5 3.25 5.08579 3.58579 4.75 4 4.75H12zM12 7.25V21.75H3C2.0335 21.75 1.25 20.9665 1.25 20V9C1.25 8.0335 2.0335 7.25 3 7.25H12z" clip-rule="evenodd"></path><path fill="#D4D6D8" fill-rule="evenodd" d="M12 11.4845V17.5155L10.4301 18.6144C10.201 18.7748 9.90169 18.7944 9.65364 18.6652C9.40559 18.5361 9.25 18.2797 9.25 18V11C9.25 10.7203 9.40559 10.4639 9.65364 10.3348C9.90169 10.2056 10.201 10.2252 10.4301 10.3856L12 11.4845Z" clip-rule="evenodd"></path></svg>